<mxfile host="Electron" agent="Mozilla/5.0 (Windows NT 10.0; Win64; x64) AppleWebKit/537.36 (KHTML, like Gecko) draw.io/24.7.17 Chrome/128.0.6613.36 Electron/32.0.1 Safari/537.36" version="24.7.17">
  <diagram name="Page-1" id="aBUfQbnpg1prqaUo3Wa8">
    <mxGraphModel dx="2503" dy="-245" grid="1" gridSize="10" guides="1" tooltips="1" connect="1" arrows="1" fold="1" page="1" pageScale="1" pageWidth="850" pageHeight="1100" math="0" shadow="0">
      <root>
        <mxCell id="0" />
        <mxCell id="1" parent="0" />
        <mxCell id="qaLD9MEg8cgxicRYrfWx-1" value="FriendDiscount" style="ellipse;shape=doubleEllipse;margin=3;whiteSpace=wrap;html=1;align=center;" parent="1" vertex="1">
          <mxGeometry x="-377.5" y="1840" width="120.5" height="40" as="geometry" />
        </mxCell>
        <mxCell id="qaLD9MEg8cgxicRYrfWx-2" value="Teacher" style="ellipse;whiteSpace=wrap;html=1;align=center;" parent="1" vertex="1">
          <mxGeometry x="-505.5" y="1130" width="100" height="40" as="geometry" />
        </mxCell>
        <mxCell id="qaLD9MEg8cgxicRYrfWx-3" value="Description" style="ellipse;whiteSpace=wrap;html=1;align=center;" parent="1" vertex="1">
          <mxGeometry x="-685.5" y="1290" width="100" height="40" as="geometry" />
        </mxCell>
        <mxCell id="qaLD9MEg8cgxicRYrfWx-4" value="Price" style="ellipse;whiteSpace=wrap;html=1;align=center;" parent="1" vertex="1">
          <mxGeometry x="-660.5" y="1840" width="100" height="40" as="geometry" />
        </mxCell>
        <mxCell id="qaLD9MEg8cgxicRYrfWx-5" value="Title" style="ellipse;whiteSpace=wrap;html=1;align=center;" parent="1" vertex="1">
          <mxGeometry x="-650" y="1250" width="100" height="40" as="geometry" />
        </mxCell>
        <mxCell id="qaLD9MEg8cgxicRYrfWx-6" value="Category" style="ellipse;whiteSpace=wrap;html=1;align=center;" parent="1" vertex="1">
          <mxGeometry x="-405" y="1210" width="100" height="40" as="geometry" />
        </mxCell>
        <mxCell id="qaLD9MEg8cgxicRYrfWx-7" value="Link" style="ellipse;whiteSpace=wrap;html=1;align=center;" parent="1" vertex="1">
          <mxGeometry x="-365" y="1250" width="100" height="40" as="geometry" />
        </mxCell>
        <mxCell id="qaLD9MEg8cgxicRYrfWx-8" value="Discount" style="ellipse;whiteSpace=wrap;html=1;align=center;" parent="1" vertex="1">
          <mxGeometry x="-460.5" y="1760" width="100" height="40" as="geometry" />
        </mxCell>
        <mxCell id="qaLD9MEg8cgxicRYrfWx-9" value="PreRequest" style="ellipse;shape=doubleEllipse;margin=3;whiteSpace=wrap;html=1;align=center;" parent="1" vertex="1">
          <mxGeometry x="-715" y="1330" width="100" height="40" as="geometry" />
        </mxCell>
        <mxCell id="qaLD9MEg8cgxicRYrfWx-10" value="BePurchased" style="ellipse;shape=doubleEllipse;margin=3;whiteSpace=wrap;html=1;align=center;" parent="1" vertex="1">
          <mxGeometry x="-685.5" y="1880" width="100" height="40" as="geometry" />
        </mxCell>
        <mxCell id="qaLD9MEg8cgxicRYrfWx-11" value="Question" style="ellipse;shape=doubleEllipse;margin=3;whiteSpace=wrap;html=1;align=center;" parent="1" vertex="1">
          <mxGeometry x="-290" y="1330" width="100" height="40" as="geometry" />
        </mxCell>
        <mxCell id="qaLD9MEg8cgxicRYrfWx-12" value="Video" style="ellipse;shape=doubleEllipse;margin=3;whiteSpace=wrap;html=1;align=center;" parent="1" vertex="1">
          <mxGeometry x="-450" y="1170" width="100" height="40" as="geometry" />
        </mxCell>
        <mxCell id="qaLD9MEg8cgxicRYrfWx-13" value="Notification" style="ellipse;shape=doubleEllipse;margin=3;whiteSpace=wrap;html=1;align=center;" parent="1" vertex="1">
          <mxGeometry x="-560.5" y="1170" width="100" height="40" as="geometry" />
        </mxCell>
        <mxCell id="qaLD9MEg8cgxicRYrfWx-14" value="Tagged" style="ellipse;shape=doubleEllipse;margin=3;whiteSpace=wrap;html=1;align=center;" parent="1" vertex="1">
          <mxGeometry x="-605.5" y="1210" width="100" height="40" as="geometry" />
        </mxCell>
        <mxCell id="qaLD9MEg8cgxicRYrfWx-15" value="Score" style="ellipse;shape=doubleEllipse;margin=3;whiteSpace=wrap;html=1;align=center;" parent="1" vertex="1">
          <mxGeometry x="-415.5" y="1800" width="100" height="40" as="geometry" />
        </mxCell>
        <mxCell id="qaLD9MEg8cgxicRYrfWx-16" value="Course" style="rounded=1;arcSize=10;whiteSpace=wrap;html=1;align=center;" parent="1" vertex="1">
          <mxGeometry x="-515.5" y="1520" width="100" height="40" as="geometry" />
        </mxCell>
        <mxCell id="qaLD9MEg8cgxicRYrfWx-17" value="" style="endArrow=none;html=1;rounded=0;" parent="1" source="qaLD9MEg8cgxicRYrfWx-16" target="qaLD9MEg8cgxicRYrfWx-5" edge="1">
          <mxGeometry width="50" height="50" relative="1" as="geometry">
            <mxPoint x="-695.5" y="1190" as="sourcePoint" />
            <mxPoint x="-645.5" y="1140" as="targetPoint" />
          </mxGeometry>
        </mxCell>
        <mxCell id="qaLD9MEg8cgxicRYrfWx-18" value="" style="endArrow=none;html=1;rounded=0;" parent="1" source="jFHb5a7May0jZ58f1IAw-5" target="qaLD9MEg8cgxicRYrfWx-4" edge="1">
          <mxGeometry width="50" height="50" relative="1" as="geometry">
            <mxPoint x="-410.5" y="1331" as="sourcePoint" />
            <mxPoint x="-698.5" y="1224" as="targetPoint" />
          </mxGeometry>
        </mxCell>
        <mxCell id="qaLD9MEg8cgxicRYrfWx-19" value="" style="endArrow=none;html=1;rounded=0;" parent="1" source="qaLD9MEg8cgxicRYrfWx-16" target="qaLD9MEg8cgxicRYrfWx-6" edge="1">
          <mxGeometry width="50" height="50" relative="1" as="geometry">
            <mxPoint x="-398.5" y="1200" as="sourcePoint" />
            <mxPoint x="-595.5" y="1096" as="targetPoint" />
          </mxGeometry>
        </mxCell>
        <mxCell id="qaLD9MEg8cgxicRYrfWx-20" value="" style="endArrow=none;html=1;rounded=0;" parent="1" source="qaLD9MEg8cgxicRYrfWx-16" target="qaLD9MEg8cgxicRYrfWx-7" edge="1">
          <mxGeometry width="50" height="50" relative="1" as="geometry">
            <mxPoint x="-382.5" y="1200" as="sourcePoint" />
            <mxPoint x="-495.5" y="1098" as="targetPoint" />
          </mxGeometry>
        </mxCell>
        <mxCell id="qaLD9MEg8cgxicRYrfWx-21" value="" style="endArrow=none;html=1;rounded=0;" parent="1" source="qaLD9MEg8cgxicRYrfWx-16" target="qaLD9MEg8cgxicRYrfWx-3" edge="1">
          <mxGeometry width="50" height="50" relative="1" as="geometry">
            <mxPoint x="-366.5" y="1200" as="sourcePoint" />
            <mxPoint x="-399.5" y="1100" as="targetPoint" />
          </mxGeometry>
        </mxCell>
        <mxCell id="qaLD9MEg8cgxicRYrfWx-22" value="" style="endArrow=none;html=1;rounded=0;" parent="1" source="qaLD9MEg8cgxicRYrfWx-16" target="qaLD9MEg8cgxicRYrfWx-2" edge="1">
          <mxGeometry width="50" height="50" relative="1" as="geometry">
            <mxPoint x="-351.5" y="1200" as="sourcePoint" />
            <mxPoint x="-304.5" y="1100" as="targetPoint" />
          </mxGeometry>
        </mxCell>
        <mxCell id="qaLD9MEg8cgxicRYrfWx-23" value="" style="endArrow=none;html=1;rounded=0;" parent="1" source="jFHb5a7May0jZ58f1IAw-5" target="qaLD9MEg8cgxicRYrfWx-8" edge="1">
          <mxGeometry width="50" height="50" relative="1" as="geometry">
            <mxPoint x="-335.5" y="1330" as="sourcePoint" />
            <mxPoint x="-207.5" y="1228" as="targetPoint" />
          </mxGeometry>
        </mxCell>
        <mxCell id="qaLD9MEg8cgxicRYrfWx-24" value="" style="endArrow=none;html=1;rounded=0;" parent="1" source="qaLD9MEg8cgxicRYrfWx-16" target="qaLD9MEg8cgxicRYrfWx-12" edge="1">
          <mxGeometry width="50" height="50" relative="1" as="geometry">
            <mxPoint x="-438.5" y="1060" as="sourcePoint" />
            <mxPoint x="-392.5" y="930" as="targetPoint" />
          </mxGeometry>
        </mxCell>
        <mxCell id="qaLD9MEg8cgxicRYrfWx-25" value="" style="endArrow=none;html=1;rounded=0;" parent="1" source="qaLD9MEg8cgxicRYrfWx-16" target="qaLD9MEg8cgxicRYrfWx-9" edge="1">
          <mxGeometry width="50" height="50" relative="1" as="geometry">
            <mxPoint x="-427.5" y="1060" as="sourcePoint" />
            <mxPoint x="-342.5" y="969" as="targetPoint" />
          </mxGeometry>
        </mxCell>
        <mxCell id="qaLD9MEg8cgxicRYrfWx-26" value="" style="endArrow=none;html=1;rounded=0;" parent="1" source="jFHb5a7May0jZ58f1IAw-5" target="qaLD9MEg8cgxicRYrfWx-15" edge="1">
          <mxGeometry width="50" height="50" relative="1" as="geometry">
            <mxPoint x="-405.5" y="1160" as="sourcePoint" />
            <mxPoint x="-316.5" y="1116" as="targetPoint" />
          </mxGeometry>
        </mxCell>
        <mxCell id="qaLD9MEg8cgxicRYrfWx-27" value="" style="endArrow=none;html=1;rounded=0;" parent="1" source="qaLD9MEg8cgxicRYrfWx-16" target="qaLD9MEg8cgxicRYrfWx-11" edge="1">
          <mxGeometry width="50" height="50" relative="1" as="geometry">
            <mxPoint x="-425.5" y="1170" as="sourcePoint" />
            <mxPoint x="-375.5" y="1120" as="targetPoint" />
          </mxGeometry>
        </mxCell>
        <mxCell id="qaLD9MEg8cgxicRYrfWx-28" value="" style="endArrow=none;html=1;rounded=0;" parent="1" source="qaLD9MEg8cgxicRYrfWx-16" target="qaLD9MEg8cgxicRYrfWx-14" edge="1">
          <mxGeometry width="50" height="50" relative="1" as="geometry">
            <mxPoint x="-345.5" y="1250" as="sourcePoint" />
            <mxPoint x="-295.5" y="1200" as="targetPoint" />
          </mxGeometry>
        </mxCell>
        <mxCell id="qaLD9MEg8cgxicRYrfWx-29" value="Tag" style="ellipse;whiteSpace=wrap;html=1;align=center;" parent="1" vertex="1">
          <mxGeometry x="-675" y="1150" width="100" height="40" as="geometry" />
        </mxCell>
        <mxCell id="qaLD9MEg8cgxicRYrfWx-30" value="" style="endArrow=none;html=1;rounded=0;" parent="1" source="qaLD9MEg8cgxicRYrfWx-14" target="qaLD9MEg8cgxicRYrfWx-29" edge="1">
          <mxGeometry width="50" height="50" relative="1" as="geometry">
            <mxPoint x="-185.5" y="1200" as="sourcePoint" />
            <mxPoint x="-135.5" y="1150" as="targetPoint" />
          </mxGeometry>
        </mxCell>
        <mxCell id="qaLD9MEg8cgxicRYrfWx-31" value="" style="endArrow=none;html=1;rounded=0;" parent="1" source="jFHb5a7May0jZ58f1IAw-5" target="qaLD9MEg8cgxicRYrfWx-10" edge="1">
          <mxGeometry width="50" height="50" relative="1" as="geometry">
            <mxPoint x="-595.5" y="1190" as="sourcePoint" />
            <mxPoint x="-545.5" y="1140" as="targetPoint" />
          </mxGeometry>
        </mxCell>
        <mxCell id="qaLD9MEg8cgxicRYrfWx-32" value="Buyer" style="ellipse;whiteSpace=wrap;html=1;align=center;" parent="1" vertex="1">
          <mxGeometry x="-790" y="1840" width="100" height="40" as="geometry" />
        </mxCell>
        <mxCell id="qaLD9MEg8cgxicRYrfWx-33" value="" style="endArrow=none;html=1;rounded=0;" parent="1" source="qaLD9MEg8cgxicRYrfWx-10" target="qaLD9MEg8cgxicRYrfWx-32" edge="1">
          <mxGeometry width="50" height="50" relative="1" as="geometry">
            <mxPoint x="-745.5" y="1350" as="sourcePoint" />
            <mxPoint x="-695.5" y="1300" as="targetPoint" />
          </mxGeometry>
        </mxCell>
        <mxCell id="qaLD9MEg8cgxicRYrfWx-34" value="" style="endArrow=none;html=1;rounded=0;" parent="1" source="jFHb5a7May0jZ58f1IAw-5" target="qaLD9MEg8cgxicRYrfWx-1" edge="1">
          <mxGeometry width="50" height="50" relative="1" as="geometry">
            <mxPoint x="-335.5" y="1410" as="sourcePoint" />
            <mxPoint x="-285.5" y="1360" as="targetPoint" />
          </mxGeometry>
        </mxCell>
        <mxCell id="qaLD9MEg8cgxicRYrfWx-41" value="" style="endArrow=none;html=1;rounded=0;" parent="1" source="qaLD9MEg8cgxicRYrfWx-16" target="qaLD9MEg8cgxicRYrfWx-13" edge="1">
          <mxGeometry width="50" height="50" relative="1" as="geometry">
            <mxPoint x="-474.5" y="1250" as="sourcePoint" />
            <mxPoint x="-456.5" y="890" as="targetPoint" />
          </mxGeometry>
        </mxCell>
        <mxCell id="qaLD9MEg8cgxicRYrfWx-46" value="" style="endArrow=none;html=1;rounded=0;" parent="1" source="qaLD9MEg8cgxicRYrfWx-57" target="qaLD9MEg8cgxicRYrfWx-8" edge="1">
          <mxGeometry relative="1" as="geometry">
            <mxPoint x="-382.97315948848313" y="969.9755189454404" as="sourcePoint" />
            <mxPoint x="-570.5" y="1430" as="targetPoint" />
          </mxGeometry>
        </mxCell>
        <mxCell id="qaLD9MEg8cgxicRYrfWx-47" value="StartAt" style="ellipse;whiteSpace=wrap;html=1;align=center;" parent="1" vertex="1">
          <mxGeometry x="-213" y="1650" width="100" height="40" as="geometry" />
        </mxCell>
        <mxCell id="qaLD9MEg8cgxicRYrfWx-48" value="" style="endArrow=none;html=1;rounded=0;" parent="1" source="qaLD9MEg8cgxicRYrfWx-47" target="qaLD9MEg8cgxicRYrfWx-8" edge="1">
          <mxGeometry relative="1" as="geometry">
            <mxPoint x="-730.5" y="1450" as="sourcePoint" />
            <mxPoint x="-570.5" y="1450" as="targetPoint" />
          </mxGeometry>
        </mxCell>
        <mxCell id="qaLD9MEg8cgxicRYrfWx-49" value="EndAt" style="ellipse;whiteSpace=wrap;html=1;align=center;" parent="1" vertex="1">
          <mxGeometry x="-213" y="1750" width="100" height="40" as="geometry" />
        </mxCell>
        <mxCell id="qaLD9MEg8cgxicRYrfWx-50" value="" style="endArrow=none;html=1;rounded=0;" parent="1" source="qaLD9MEg8cgxicRYrfWx-49" target="qaLD9MEg8cgxicRYrfWx-8" edge="1">
          <mxGeometry relative="1" as="geometry">
            <mxPoint x="-750.5" y="1440" as="sourcePoint" />
            <mxPoint x="-590.5" y="1440" as="targetPoint" />
          </mxGeometry>
        </mxCell>
        <mxCell id="qaLD9MEg8cgxicRYrfWx-51" value="" style="endArrow=none;html=1;rounded=0;" parent="1" source="qaLD9MEg8cgxicRYrfWx-56" target="qaLD9MEg8cgxicRYrfWx-8" edge="1">
          <mxGeometry relative="1" as="geometry">
            <mxPoint x="-711.5" y="1394" as="sourcePoint" />
            <mxPoint x="-560.5" y="1440" as="targetPoint" />
          </mxGeometry>
        </mxCell>
        <mxCell id="qaLD9MEg8cgxicRYrfWx-56" value="DiscountedPrice" style="ellipse;whiteSpace=wrap;html=1;align=center;" parent="1" vertex="1">
          <mxGeometry x="-220.5" y="1700" width="115" height="40" as="geometry" />
        </mxCell>
        <mxCell id="qaLD9MEg8cgxicRYrfWx-57" value="Percent" style="ellipse;whiteSpace=wrap;html=1;align=center;dashed=1;" parent="1" vertex="1">
          <mxGeometry x="-213" y="1800" width="100" height="40" as="geometry" />
        </mxCell>
        <mxCell id="qaLD9MEg8cgxicRYrfWx-58" value="BeLike" style="ellipse;shape=doubleEllipse;margin=3;whiteSpace=wrap;html=1;align=center;" parent="1" vertex="1">
          <mxGeometry x="-740" y="1370" width="100" height="40" as="geometry" />
        </mxCell>
        <mxCell id="qaLD9MEg8cgxicRYrfWx-59" value="" style="endArrow=none;html=1;rounded=0;" parent="1" source="qaLD9MEg8cgxicRYrfWx-58" target="qaLD9MEg8cgxicRYrfWx-16" edge="1">
          <mxGeometry relative="1" as="geometry">
            <mxPoint x="-690.5" y="1330" as="sourcePoint" />
            <mxPoint x="-530.5" y="1330" as="targetPoint" />
          </mxGeometry>
        </mxCell>
        <mxCell id="qaLD9MEg8cgxicRYrfWx-60" value="Liker" style="ellipse;whiteSpace=wrap;html=1;align=center;" parent="1" vertex="1">
          <mxGeometry x="-805" y="1330" width="65" height="40" as="geometry" />
        </mxCell>
        <mxCell id="qaLD9MEg8cgxicRYrfWx-61" value="" style="endArrow=none;html=1;rounded=0;" parent="1" source="qaLD9MEg8cgxicRYrfWx-58" target="qaLD9MEg8cgxicRYrfWx-60" edge="1">
          <mxGeometry relative="1" as="geometry">
            <mxPoint x="-820.5" y="1330" as="sourcePoint" />
            <mxPoint x="-660.5" y="1330" as="targetPoint" />
          </mxGeometry>
        </mxCell>
        <mxCell id="qaLD9MEg8cgxicRYrfWx-68" value="IsAvailable" style="ellipse;whiteSpace=wrap;html=1;align=center;" parent="1" vertex="1">
          <mxGeometry x="-705.5" y="1920" width="100" height="40" as="geometry" />
        </mxCell>
        <mxCell id="qaLD9MEg8cgxicRYrfWx-69" value="" style="endArrow=none;html=1;rounded=0;" parent="1" source="qaLD9MEg8cgxicRYrfWx-68" target="jFHb5a7May0jZ58f1IAw-5" edge="1">
          <mxGeometry relative="1" as="geometry">
            <mxPoint x="-590.5" y="1350" as="sourcePoint" />
            <mxPoint x="-430.5" y="1350" as="targetPoint" />
          </mxGeometry>
        </mxCell>
        <mxCell id="qaLD9MEg8cgxicRYrfWx-70" value="Status" style="ellipse;whiteSpace=wrap;html=1;align=center;" parent="1" vertex="1">
          <mxGeometry x="-750" y="1410" width="100" height="40" as="geometry" />
        </mxCell>
        <mxCell id="qaLD9MEg8cgxicRYrfWx-71" value="" style="endArrow=none;html=1;rounded=0;" parent="1" source="qaLD9MEg8cgxicRYrfWx-70" target="qaLD9MEg8cgxicRYrfWx-16" edge="1">
          <mxGeometry relative="1" as="geometry">
            <mxPoint x="-640.5" y="1380" as="sourcePoint" />
            <mxPoint x="-480.5" y="1380" as="targetPoint" />
          </mxGeometry>
        </mxCell>
        <mxCell id="qaLD9MEg8cgxicRYrfWx-72" value="Level" style="ellipse;whiteSpace=wrap;html=1;align=center;" parent="1" vertex="1">
          <mxGeometry x="-750" y="1450" width="100" height="40" as="geometry" />
        </mxCell>
        <mxCell id="qaLD9MEg8cgxicRYrfWx-73" value="" style="endArrow=none;html=1;rounded=0;" parent="1" source="qaLD9MEg8cgxicRYrfWx-72" target="qaLD9MEg8cgxicRYrfWx-16" edge="1">
          <mxGeometry relative="1" as="geometry">
            <mxPoint x="-630.5" y="1410" as="sourcePoint" />
            <mxPoint x="-470.5" y="1410" as="targetPoint" />
          </mxGeometry>
        </mxCell>
        <mxCell id="qaLD9MEg8cgxicRYrfWx-74" value="ImageUrl" style="ellipse;whiteSpace=wrap;html=1;align=center;" parent="1" vertex="1">
          <mxGeometry x="-325" y="1290" width="100" height="40" as="geometry" />
        </mxCell>
        <mxCell id="qaLD9MEg8cgxicRYrfWx-75" value="" style="endArrow=none;html=1;rounded=0;" parent="1" source="qaLD9MEg8cgxicRYrfWx-16" target="qaLD9MEg8cgxicRYrfWx-74" edge="1">
          <mxGeometry relative="1" as="geometry">
            <mxPoint x="-350.5" y="1460" as="sourcePoint" />
            <mxPoint x="-190.5" y="1460" as="targetPoint" />
          </mxGeometry>
        </mxCell>
        <mxCell id="qaLD9MEg8cgxicRYrfWx-80" value="" style="endArrow=none;html=1;rounded=0;" parent="1" source="qaLD9MEg8cgxicRYrfWx-16" target="qaLD9MEg8cgxicRYrfWx-81" edge="1">
          <mxGeometry relative="1" as="geometry">
            <mxPoint x="-330.5" y="1380" as="sourcePoint" />
            <mxPoint x="-118.68493995275549" y="1302.9114545163993" as="targetPoint" />
          </mxGeometry>
        </mxCell>
        <mxCell id="qaLD9MEg8cgxicRYrfWx-81" value="Comment" style="ellipse;shape=doubleEllipse;margin=3;whiteSpace=wrap;html=1;align=center;" parent="1" vertex="1">
          <mxGeometry x="-269.00493995275554" y="1370.0014545163992" width="100" height="40" as="geometry" />
        </mxCell>
        <mxCell id="odA5GpgwzxrHbG6fRe9_-1" value="Store" style="ellipse;whiteSpace=wrap;html=1;align=center;" parent="1" vertex="1">
          <mxGeometry x="-257" y="1410" width="100" height="40" as="geometry" />
        </mxCell>
        <mxCell id="odA5GpgwzxrHbG6fRe9_-2" value="" style="endArrow=none;html=1;rounded=0;" parent="1" source="qaLD9MEg8cgxicRYrfWx-16" target="odA5GpgwzxrHbG6fRe9_-1" edge="1">
          <mxGeometry width="50" height="50" relative="1" as="geometry">
            <mxPoint x="-245" y="1460" as="sourcePoint" />
            <mxPoint x="-195" y="1410" as="targetPoint" />
          </mxGeometry>
        </mxCell>
        <mxCell id="odA5GpgwzxrHbG6fRe9_-3" value="BeApply" style="ellipse;shape=doubleEllipse;margin=3;whiteSpace=wrap;html=1;align=center;" parent="1" vertex="1">
          <mxGeometry x="-340.00493995275554" y="1880.0014545163995" width="100" height="40" as="geometry" />
        </mxCell>
        <mxCell id="odA5GpgwzxrHbG6fRe9_-4" value="" style="endArrow=none;html=1;rounded=0;" parent="1" source="jFHb5a7May0jZ58f1IAw-5" target="odA5GpgwzxrHbG6fRe9_-3" edge="1">
          <mxGeometry width="50" height="50" relative="1" as="geometry">
            <mxPoint x="-265" y="1600" as="sourcePoint" />
            <mxPoint x="-215" y="1550" as="targetPoint" />
          </mxGeometry>
        </mxCell>
        <mxCell id="odA5GpgwzxrHbG6fRe9_-5" value="Coupon" style="ellipse;whiteSpace=wrap;html=1;align=center;" parent="1" vertex="1">
          <mxGeometry x="-225" y="1860" width="100" height="40" as="geometry" />
        </mxCell>
        <mxCell id="odA5GpgwzxrHbG6fRe9_-6" value="" style="endArrow=none;html=1;rounded=0;" parent="1" source="odA5GpgwzxrHbG6fRe9_-3" target="odA5GpgwzxrHbG6fRe9_-5" edge="1">
          <mxGeometry width="50" height="50" relative="1" as="geometry">
            <mxPoint x="55" y="1560" as="sourcePoint" />
            <mxPoint x="105" y="1510" as="targetPoint" />
          </mxGeometry>
        </mxCell>
        <mxCell id="odA5GpgwzxrHbG6fRe9_-7" value="BeSubscribe" style="ellipse;shape=doubleEllipse;margin=3;whiteSpace=wrap;html=1;align=center;" parent="1" vertex="1">
          <mxGeometry x="-257" y="1450" width="100" height="40" as="geometry" />
        </mxCell>
        <mxCell id="odA5GpgwzxrHbG6fRe9_-8" value="User" style="ellipse;whiteSpace=wrap;html=1;align=center;" parent="1" vertex="1">
          <mxGeometry x="-140" y="1420" width="100" height="40" as="geometry" />
        </mxCell>
        <mxCell id="odA5GpgwzxrHbG6fRe9_-9" value="" style="endArrow=none;html=1;rounded=0;" parent="1" source="odA5GpgwzxrHbG6fRe9_-7" target="odA5GpgwzxrHbG6fRe9_-8" edge="1">
          <mxGeometry relative="1" as="geometry">
            <mxPoint x="55" y="1480" as="sourcePoint" />
            <mxPoint x="215" y="1480" as="targetPoint" />
          </mxGeometry>
        </mxCell>
        <mxCell id="odA5GpgwzxrHbG6fRe9_-10" value="" style="endArrow=none;html=1;rounded=0;" parent="1" source="qaLD9MEg8cgxicRYrfWx-16" target="odA5GpgwzxrHbG6fRe9_-7" edge="1">
          <mxGeometry width="50" height="50" relative="1" as="geometry">
            <mxPoint x="-115" y="1540" as="sourcePoint" />
            <mxPoint x="-65" y="1490" as="targetPoint" />
          </mxGeometry>
        </mxCell>
        <mxCell id="odA5GpgwzxrHbG6fRe9_-11" value="PlacedIn" style="ellipse;shape=doubleEllipse;margin=3;whiteSpace=wrap;html=1;align=center;" parent="1" vertex="1">
          <mxGeometry x="-615.5" y="1800" width="100" height="40" as="geometry" />
        </mxCell>
        <mxCell id="odA5GpgwzxrHbG6fRe9_-12" value="" style="endArrow=none;html=1;rounded=0;" parent="1" source="odA5GpgwzxrHbG6fRe9_-11" target="jFHb5a7May0jZ58f1IAw-5" edge="1">
          <mxGeometry relative="1" as="geometry">
            <mxPoint x="-815" y="1600" as="sourcePoint" />
            <mxPoint x="-655" y="1600" as="targetPoint" />
          </mxGeometry>
        </mxCell>
        <mxCell id="odA5GpgwzxrHbG6fRe9_-13" value="ShoppingCart" style="ellipse;whiteSpace=wrap;html=1;align=center;" parent="1" vertex="1">
          <mxGeometry x="-725.5" y="1750" width="100" height="40" as="geometry" />
        </mxCell>
        <mxCell id="odA5GpgwzxrHbG6fRe9_-14" value="" style="endArrow=none;html=1;rounded=0;" parent="1" source="odA5GpgwzxrHbG6fRe9_-13" target="odA5GpgwzxrHbG6fRe9_-11" edge="1">
          <mxGeometry relative="1" as="geometry">
            <mxPoint x="-1005" y="1620" as="sourcePoint" />
            <mxPoint x="-845" y="1620" as="targetPoint" />
          </mxGeometry>
        </mxCell>
        <mxCell id="odA5GpgwzxrHbG6fRe9_-15" value="Degree" style="ellipse;shape=doubleEllipse;margin=3;whiteSpace=wrap;html=1;align=center;" parent="1" vertex="1">
          <mxGeometry x="-570" y="1760" width="100" height="40" as="geometry" />
        </mxCell>
        <mxCell id="odA5GpgwzxrHbG6fRe9_-16" value="" style="endArrow=none;html=1;rounded=0;" parent="1" source="odA5GpgwzxrHbG6fRe9_-15" target="jFHb5a7May0jZ58f1IAw-5" edge="1">
          <mxGeometry relative="1" as="geometry">
            <mxPoint x="-845" y="1670" as="sourcePoint" />
            <mxPoint x="-685" y="1670" as="targetPoint" />
          </mxGeometry>
        </mxCell>
        <mxCell id="r5tVIS-mL23A1AL02kqg-1" value="SaleFlow" style="ellipse;shape=doubleEllipse;margin=3;whiteSpace=wrap;html=1;align=center;" parent="1" vertex="1">
          <mxGeometry x="-320.5" y="1920" width="100" height="40" as="geometry" />
        </mxCell>
        <mxCell id="r5tVIS-mL23A1AL02kqg-2" value="" style="endArrow=none;html=1;rounded=0;" parent="1" source="jFHb5a7May0jZ58f1IAw-5" target="r5tVIS-mL23A1AL02kqg-1" edge="1">
          <mxGeometry relative="1" as="geometry">
            <mxPoint x="-365" y="1660" as="sourcePoint" />
            <mxPoint x="-205" y="1660" as="targetPoint" />
          </mxGeometry>
        </mxCell>
        <mxCell id="jFHb5a7May0jZ58f1IAw-2" value="" style="endArrow=none;html=1;rounded=0;" edge="1" parent="1" source="qaLD9MEg8cgxicRYrfWx-16" target="jFHb5a7May0jZ58f1IAw-3">
          <mxGeometry relative="1" as="geometry">
            <mxPoint x="-465.5" y="1690" as="sourcePoint" />
            <mxPoint x="-635" y="1890" as="targetPoint" />
          </mxGeometry>
        </mxCell>
        <mxCell id="jFHb5a7May0jZ58f1IAw-3" value="P,D" style="ellipse;whiteSpace=wrap;html=1;" vertex="1" parent="1">
          <mxGeometry x="-485.5" y="1640" width="40" height="40" as="geometry" />
        </mxCell>
        <mxCell id="jFHb5a7May0jZ58f1IAw-5" value="Product" style="rounded=1;arcSize=10;whiteSpace=wrap;html=1;align=center;" vertex="1" parent="1">
          <mxGeometry x="-515.5" y="2040" width="100" height="40" as="geometry" />
        </mxCell>
        <mxCell id="jFHb5a7May0jZ58f1IAw-6" value="" style="endArrow=none;html=1;rounded=0;" edge="1" parent="1" source="jFHb5a7May0jZ58f1IAw-5" target="jFHb5a7May0jZ58f1IAw-3">
          <mxGeometry relative="1" as="geometry">
            <mxPoint x="-865" y="1920" as="sourcePoint" />
            <mxPoint x="-705" y="1920" as="targetPoint" />
          </mxGeometry>
        </mxCell>
        <mxCell id="jFHb5a7May0jZ58f1IAw-7" value="Type" style="ellipse;whiteSpace=wrap;html=1;align=center;" vertex="1" parent="1">
          <mxGeometry x="-280" y="1490" width="100" height="40" as="geometry" />
        </mxCell>
        <mxCell id="jFHb5a7May0jZ58f1IAw-8" value="" style="endArrow=none;html=1;rounded=0;" edge="1" parent="1" source="qaLD9MEg8cgxicRYrfWx-16" target="jFHb5a7May0jZ58f1IAw-7">
          <mxGeometry width="50" height="50" relative="1" as="geometry">
            <mxPoint x="-405" y="1536" as="sourcePoint" />
            <mxPoint x="-238" y="1491" as="targetPoint" />
          </mxGeometry>
        </mxCell>
        <mxCell id="jFHb5a7May0jZ58f1IAw-9" value="Have" style="ellipse;shape=doubleEllipse;margin=3;whiteSpace=wrap;html=1;align=center;" vertex="1" parent="1">
          <mxGeometry x="-715" y="1960" width="100" height="40" as="geometry" />
        </mxCell>
        <mxCell id="jFHb5a7May0jZ58f1IAw-10" value="Coupon" style="ellipse;whiteSpace=wrap;html=1;align=center;" vertex="1" parent="1">
          <mxGeometry x="-825.5" y="1940" width="100" height="40" as="geometry" />
        </mxCell>
        <mxCell id="jFHb5a7May0jZ58f1IAw-11" value="" style="endArrow=none;html=1;rounded=0;" edge="1" parent="1" source="jFHb5a7May0jZ58f1IAw-10" target="jFHb5a7May0jZ58f1IAw-9">
          <mxGeometry relative="1" as="geometry">
            <mxPoint x="-740" y="2050" as="sourcePoint" />
            <mxPoint x="-580" y="2050" as="targetPoint" />
          </mxGeometry>
        </mxCell>
        <mxCell id="jFHb5a7May0jZ58f1IAw-12" value="" style="endArrow=none;html=1;rounded=0;" edge="1" parent="1" source="jFHb5a7May0jZ58f1IAw-9" target="jFHb5a7May0jZ58f1IAw-5">
          <mxGeometry relative="1" as="geometry">
            <mxPoint x="-720" y="1978" as="sourcePoint" />
            <mxPoint x="-701" y="1982" as="targetPoint" />
          </mxGeometry>
        </mxCell>
      </root>
    </mxGraphModel>
  </diagram>
</mxfile>
